/* XPM */
static const char* const appendQueryIcon_data[] = { 
"16 16 3 1",
"a c #008000",
". c None",
"# c #4a4a4a",
"................",
"................",
"...####.........",
"...#aa#......###",
"...#aa#......###",
"####aa####...###",
"#aaaaaaaa#...###",
"#aaaaaaaa#...###",
"####aa####...###",
"...#aa#.........",
"...#aa#......###",
"...####......###",
"................",
"................",
"................",
"................"};

