/* XPM */
static const char* const applicationIcon_data[] = { 
"32 32 147 2",
"Qt c #000000",
".B c #081052",
".A c #08215a",
".C c #101052",
"#V c #182152",
".z c #18296b",
".k c #212963",
"#4 c #21315a",
".j c #21316b",
".y c #213973",
".D c #29295a",
".l c #292963",
"#3 c #293963",
".Q c #294a84",
".R c #313163",
".x c #31427b",
"#8 c #314a6b",
".3 c #315a84",
"#W c #39426b",
"#Q c #394273",
"al c #394a6b",
"ak c #394a73",
".i c #394a7b",
".4 c #39528c",
".P c #395a8c",
".O c #395a94",
".m c #42426b",
"#U c #424a73",
"#R c #42527b",
"#h c #426394",
".2 c #426b94",
".w c #4a6394",
".N c #4a639c",
"#q c #5273a5",
".1 c #527ba5",
".S c #5a5a7b",
".5 c #5a6b9c",
"#w c #5a7394",
"#E c #5a739c",
"#i c #5a7b9c",
".h c #636b94",
"#P c #63738c",
"#S c #637394",
"#D c #637ba5",
".0 c #6384ad",
".E c #6b6b8c",
"ao c #6b7394",
"#5 c #6b7b94",
"af c #6b84a5",
"#v c #6b84ad",
"#p c #6b8cbd",
"#g c #6b94b5",
"am c #737b9c",
"#J c #7384a5",
"#6 c #738ca5",
".M c #738cad",
"#M c #7394b5",
".n c #7b7394",
"ai c #7b849c",
"#2 c #7b84a5",
"#N c #7b8ca5",
"#x c #7b8cad",
".L c #7b94ad",
".Z c #7b94b5",
"#0 c #7b9cbd",
"aj c #848ca5",
".6 c #848cad",
"#X c #8494ad",
".v c #8494b5",
"ae c #849cb5",
".K c #849cbd",
"#o c #849cc6",
"#T c #8c9cad",
".u c #8c9cb5",
"a. c #8c9cbd",
"#K c #8c9cc6",
"#f c #8ca5c6",
".g c #94a5bd",
".J c #9ca5bd",
"#H c #9cadbd",
".t c #9cadc6",
"#j c #9cadce",
"#n c #9cb5ce",
".T c #a5a5ad",
".7 c #a5a5b5",
"#G c #a5adbd",
".s c #a5b5c6",
".Y c #a5b5ce",
"#C c #a5b5d6",
"#Z c #a5bdd6",
"ag c #adb5bd",
".V c #adb5c6",
"#. c #adb5ce",
"#O c #adbdc6",
".W c #adbdce",
".X c #adbdd6",
"#Y c #adc6de",
"aq c #b5bdc6",
"## c #b5bdd6",
"#l c #b5c6ce",
"#u c #b5c6d6",
"#y c #b5c6de",
"#I c #b5cede",
".o c #bdbdce",
".I c #bdc6ce",
".r c #bdc6d6",
"#a c #bdc6de",
"#9 c #bdced6",
"#r c #bdcede",
"#z c #bdcee7",
"#L c #bdd6de",
"#A c #bdd6e7",
".F c #c6bdc6",
"ad c #c6ced6",
".f c #c6cede",
"#e c #c6cee7",
"#1 c #c6d6de",
"#b c #c6d6e7",
"#B c #c6dee7",
".8 c #cecece",
"ap c #ceced6",
".e c #ced6de",
"#c c #ced6e7",
"#d c #ced6ef",
"#m c #cedee7",
"#t c #cedeef",
"ah c #d6d6de",
".d c #d6d6e7",
".U c #d6dee7",
"#k c #d6deef",
"#s c #d6def7",
"aa c #d6e7ef",
".H c #dedee7",
".c c #dedeef",
"ab c #dee7e7",
"ac c #dee7ef",
".p c #e7e7ef",
"#F c #e7efef",
".b c #e7eff7",
".9 c #efefef",
".G c #efeff7",
".a c #eff7f7",
"an c #eff7ff",
".q c #f7f7f7",
"a# c #f7f7ff",
"#7 c #f7ffff",
".# c #ffffff",
"QtQtQtQtQtQtQtQtQtQtQtQtQtQtQtQtQtQtQtQtQtQtQtQtQtQtQtQtQtQtQtQt",
"Qt.#.#.#.#.#.#.#.a.b.c.d.e.e.f.g.h.i.j.k.l.m.n.o.p.#.#.#.#.#.#Qt",
"Qt.#.#.#.#.#.q.p.e.r.s.t.g.u.v.w.x.y.z.A.B.C.D.E.F.G.#.#.#.#.#Qt",
"Qt.#.#.#.#.G.H.I.s.J.g.g.K.L.M.N.O.P.Q.y.z.k.R.S.T.p.#.#.#.#.#Qt",
"Qt.#.#.#.a.U.r.V.s.s.W.X.X.Y.t.Z.0.1.2.3.4.5.6.7.8.9.#.#.#.#.#Qt",
"Qt.#.#.a.U.r#.###a.f#b#c#d#c#e.Y#f#g.1#h#i#j#k.p.G.#.#.#.#.#.#Qt",
"Qt.#.#.U#l.V.X#e#d#m.U#k.c#k#k.r#n#o#p#q#i.t.b.#.#.#.#.#.#.#.#Qt",
"Qt.#.#.I#..X#r#b#s#k#k#k#t#t#t#b#u#j#o#v#w#x#e.q.#.#.#.#.#.#.#Qt",
"Qt.#.V.V###y#z#A#z#y#y#z#b#B#B#m#b#y#C.K#D#E.t#F.#.#.#.#.#.#.#Qt",
"Qt#G#H.W#y#z#z#I#n#x#J#K.X#L#A#m#m#c#a#j#M#i#N.f.q.#.#.#.#.#.#Qt",
"Qt#O.s.W#y#r#r#I.t#P#Q#R#J.Y#I#b#t#d#e###f.0#S#G.b.#.#.#.#.#.#Qt",
"Qt.#.e.e.e#c#m.U.f#T#U#V#W#X#Y#z#b#b#b#r#Z#0#S#X#m.#.#.#.#.#.#Qt",
"Qt.#.a.G#F#F.G.a.b#1#2#3#4#5#u#I#I#r#b#b#u.t#6#6.I.a.#.#.#.#.#Qt",
"Qt.#.#.#.#.#.#.##7.b.W#P#8#5.f#m#L#9#L#b#r.Xa.#6.s.b.#.#.#.#.#Qt",
"Qt.#.#.#.#.#.#.#.#a#aa.g#S#T.U.Gab#B#L#L#b#I#j.L.gac.#.#.#.#.#Qt",
"Qt.#.#.#.#.#.#.#.#.#a#.U#l.e.a.#.#a#.Gac#b#I#n.v.Lad.q.#.#.#.#Qt",
"Qt.#.#.#.#.#.#.#.#.##7#F.U#F#7.#.#.#.#.Gac#r.Y.v#N#u.q.#.#.#.#Qt",
"Qt.#.#.#.#.#.#.#.#.#.#.q.a.q.#.#.#.#.#.#.a.U.W.v#6.W.a.#.#.#.#Qt",
"Qt.#.#.#.#.#.#.#.#.#.#.#.#.#.#.#.#.#.#.#.#.G#raeaf.s.G.#.#.#.#Qt",
"Qt.#.#.#.#.#.#.#.#.#.#.#.#.#.#.#.#.#.#.#.#a#aa.t#6.s.G.#.#.#.#Qt",
"Qt.#.#.#.#.#.#.#.#.#.#.#.#.#.#.#.#.#.#.#.#.#.b.r#T.V.G.#.#.#.#Qt",
"Qt.#.#.#.#.#.#.#.#.#.#.#.#.#.#.#.#.#.#.#.#.#a#.Uag.o.G.#.#.#.#Qt",
"Qt.#.#.#.#.#.#.#.#.#.#.#.#.#.#.#.#.#.#.#.#.#.#.9.eah.#.#.#.#.#Qt",
"Qt.#.#.#.#.#.#.#.#.#.#.#.#.#.#.#.#.#.#.#.#.#.#.q#Fab.#.#.#.#.#Qt",
"Qt.#.#.#.#.#.#.#.#.#.#.#.#.#.#.#.#.#.#.#.#.#.#.#acad.e.G.#.#.#Qt",
"Qt.#.#.#.#.#.#.#.#.#.#.#.#.#.#.#.#.#.#.#.#.#.#.a#uaiaj.r.b.#.#Qt",
"Qt.#.#.#.#.#.#.#.#.#.#.#.#.#.#.#.#.#.#.#.#.#.#acaeakalam.o.9.9Qt",
"Qt.#.#.#.#.#.#.#.#.#.#.#.#.#.#.#.#.#.#.#.#.#an.r#5al#Rao#G.p.pQt",
"Qt.#.#.#.#.#.#.#.#.#.#.#.#.#.#.#.#.#.#.#.#.#.b.Vai#N.t##ap.9.9Qt",
"Qt.#.#.#.#.#.#.#.#.#.#.#.#.#.#.#.#.#.#.#.#.#abaq.V#b.b.#.#.#.#Qt",
"Qt.#.#.#.#.#.#.#.#.#.#.#.#.#.#.#.#.#.#.#.#.#abaq.V#b.b.#.#.#.#Qt",
"QtQtQtQtQtQtQtQtQtQtQtQtQtQtQtQtQtQtQtQtQtQtQtQtQtQtQtQtQtQtQtQt"};

