/* XPM */
static const char* const bit1Icon_data[] = {
"16 16 4 1",
"# c #000000",
". c None",
"b c #4a4a4a",
"a c #ffffff",
"................",
"########aaaaaaaa",
"########aaaaaaaa",
"########aaaaaaaa",
"########aaaaaaaa",
"########aaaaaaaa",
"########aaaaaaaa",
"................",
"................",
".......bb.......",
"......bbb.......",
".......bb.......",
".......bb.......",
".......bb.......",
".......bb.......",
"................"};
