/* XPM */
static const char* const bits32Icon_data[] = { 
"16 16 98 2",
"Qt c None",
"#z c #0650fe",
"#y c #06a2fe",
"#x c #06eff8",
"#v c #06fe62",
"#w c #06feb6",
"#u c #0cfe18",
"#A c #140dfe",
"#j c #185dff",
"#i c #18a9ff",
"#h c #18f0f8",
"#f c #18ff6e",
"#g c #18ffbc",
"#e c #1fff29",
"#k c #251fff",
".5 c #2c6afe",
".4 c #2cb0fe",
".3 c #2cf1f8",
".1 c #2cfe7a",
".2 c #2cfec1",
".0 c #31fe3b",
".6 c #3731fe",
".P c #4178fc",
".O c #41b7fc",
".N c #41f1f7",
".L c #41fc86",
".M c #41fcc6",
".K c #46fc4e",
"#F c #4a4a4a",
".Q c #4b46fc",
"#t c #4dfe06",
".z c #5687fb",
".y c #56befb",
".x c #56f0f6",
".v c #56fb93",
".w c #56fbcb",
".u c #5bfb62",
"#d c #5bff18",
".A c #605bfb",
"#B c #6106fe",
".Z c #68fe2c",
".j c #6b95f9",
".i c #6bc4f9",
".h c #6bf0f5",
".f c #6bf99f",
".g c #6bf9d0",
"#l c #6d18ff",
".e c #6ef975",
".k c #736ef9",
".J c #77fc41",
".7 c #792cfe",
".R c #8641fc",
".t c #86fb56",
".B c #9356fb",
".d c #94f96b",
".l c #9f6bf9",
"#s c #a0fe06",
"#c c #a7ff18",
".Y c #aefe2c",
"#C c #b206fe",
".I c #b5fc41",
"#m c #b818ff",
".s c #bcfb56",
".8 c #bd2cfe",
".S c #c341fc",
".c c #c3f96b",
".C c #c856fb",
".m c #cd6bf9",
"#r c #ecfa06",
"#b c #eefa18",
".b c #eff66b",
".r c #eff856",
".H c #eff941",
".X c #effa2c",
".n c #f56bf1",
".D c #f656f1",
"#D c #f706f0",
".T c #f741f2",
"#n c #f818f2",
".9 c #f82cf2",
".o c #f96bc6",
".# c #f9a26b",
".a c #f9d06b",
".E c #fb56c0",
".p c #fb9756",
".q c #fbcc56",
".U c #fc41b9",
".F c #fc8a41",
".G c #fcc741",
"#E c #fe06a5",
"#. c #fe2cb3",
"#p c #fe6706",
".V c #fe7e2c",
"#q c #feb706",
".W c #fec22c",
"#o c #ff18ac",
"## c #ff7218",
"#a c #ffbd18",
"QtQtQtQtQtQtQtQtQtQtQtQtQtQtQtQt",
".#.a.b.c.d.e.f.g.h.i.j.k.l.m.n.o",
".p.q.r.s.t.u.v.w.x.y.z.A.B.C.D.E",
".F.G.H.I.J.K.L.M.N.O.P.Q.R.S.T.U",
".V.W.X.Y.Z.0.1.2.3.4.5.6.7.8.9#.",
"###a#b#c#d#e#f#g#h#i#j#k#l#m#n#o",
"#p#q#r#s#t#u#v#w#x#y#z#A#B#C#D#E",
"QtQtQtQtQtQtQtQtQtQtQtQtQtQtQtQt",
"QtQtQtQtQtQtQtQtQtQtQtQtQtQtQtQt",
"QtQtQtQt#F#F#FQtQtQt#F#F#FQtQtQt",
"QtQtQt#F#FQt#F#FQt#F#FQt#F#FQtQt",
"QtQtQtQtQt#F#FQtQtQtQtQt#F#FQtQt",
"QtQtQtQtQtQt#F#FQtQt#F#F#FQtQtQt",
"QtQtQt#F#FQt#F#FQt#F#FQtQtQtQtQt",
"QtQtQtQt#F#F#FQtQt#F#F#F#F#FQtQt",
"QtQtQtQtQtQtQtQtQtQtQtQtQtQtQtQt"};
