/* XPM */
static const char* const cancelQueryIcon_data[] = { 
"16 16 10 1",
"d c #008400",
"b c #00ff00",
"c c #4a4a4a",
"f c #4a4aa5",
"g c #800000",
"e c #808080",
"# c #949494",
"a c #c6ffc6",
". c None",
"h c #ffffff",
"................",
"...#####........",
"..#ababb#.......",
".#abababbc......",
".#dababbbc......",
".#ddadaddc......",
".#dbda..ec......",
".#ddafffffff....",
".#dddffffffcgg#.",
".#dbd##gg#hgc##.",
".#dda##h#ggg##..",
"..ccd##hheggc...",
"....cccccgggg...",
"........#g##gg..",
".......#g#..#g#.",
".......g#....#g."};

