/* XPM */
static const char* const cascadeIcon_data[] = { 
"16 16 3 1",
"# c None",
". c #4a4aa5",
"a c #ffffff",
"..........######",
".a........######",
"..........######",
".aaaaaaaa.######",
".a..........####",
".a.a........####",
"............####",
"##.aaaaaaaa.####",
"##.aa..........#",
"##.aa.a........#",
"##.............#",
"#####.aaaaaaaa.#",
"#####.aaaaaaaa.#",
"#####.aaaaaaaa.#",
"#####..........#",
"################"};
