/* XPM */
static const char* const chooseFieldsIcon_data[] = { 
"16 16 9 1",
"e c #000000",
"d c #0000ff",
"# c None",
"b c #4a4a4a",
". c #4a4aa5",
"a c #949494",
"c c #efffef",
"g c #ff0084",
"f c #ffffff",
"............####",
"............a###",
"bccccccccccba###",
"bcbbcbbcddddddd#",
"bccccccceeeeeeea",
"bcbbcbbcefffffea",
"bcccccccefgggfea",
"bcbbcbbcefffffea",
"bcccccccefgggfea",
"bcbbcbbcefffffea",
"bcccccccefgggfea",
"bbbbbbbbefffffea",
"#aaaaaaaefffffea",
"########efffffea",
"########eeeeeeea",
"#########aaaaaaa"};
