/* XPM */
static const char* const clearGridIcon_data[] = { 
"16 16 7 1",
"# c None",
". c #4a4a4a",
"c c #4a4aa5",
"d c #840000",
"e c #848484",
"a c #d6d6ce",
"b c #ffffff",
"..............##",
".a.aaaaaaaaaa.##",
"..............##",
".a.bbbbbbbbbb.##",
".a.bccbccbccb.##",
".a.bbbbbbbbbbdd#",
".a.bccbccbceddee",
".a.bbeddbbeddee#",
".a.bcceeddddee##",
".a.bbbbbeddde.##",
".a.bccbcddddd.##",
".a.bbbbeddeedd##",
".......ddee.dde#",
"######edde###ed#",
"######ddee####de",
"######dee#####ee"};
