/* XPM */
static const char* const closeIcon_data[] = { 
"16 16 6 1",
". c None",
"b c #4a4a4a",
"a c #4a4aa5",
"# c #840000",
"d c #848484",
"c c #ffffff",
"................",
"...........###..",
"...........##...",
"...........#.#..",
"..............#.",
".aaaaaaaaaaa..#.",
".aaaaaaaaaaa....",
".bcccccccccb....",
".bcdddddddcb....",
".bcccccccccb....",
".bcddddddccb....",
".bcccccccccb....",
".bcdddddddcb....",
".bcccccccccb....",
".bbbbbbbbbbb....",
"................"};
