/* XPM */
static const char* const closeAllIcon_data[] = { 
"16 16 6 1",
". c None",
"b c #4a4a4a",
"a c #4a4aa5",
"# c #848484",
"c c #ff0000",
"d c #ffffff",
"................",
"##########......",
"#aaaaaaaab......",
"#########b.cc...",
"#dd###cc##cc#...",
"#dd#aaaccccab...",
"#dd#####ccc#b...",
"#dd#dd##cccc####",
"#bb#dd#ccaaccaab",
"...#ddcc####c##b",
"...#dd##dddddddb",
"...#bb#ddddddddb",
"......#ddddddddb",
"......#ddddddddb",
"......#bbbbbbbbb",
"................"};
