/* XPM */
static const char* const criticalIcon_data[] = { 
"15 15 17 1",
". c None",
"o c #501d1d",
"n c #7f1212",
"m c #9c0000",
"h c #a42826",
"c c #b76060",
"f c #bba5a4",
"j c #bd0808",
"e c #d13939",
"d c #e20707",
"g c #e8e8ea",
"k c #f5f5f7",
"# c #f6a6a2",
"a c #f76563",
"b c #fa3232",
"i c #fff3f3",
"l c #ffffff",
"....#aaaa#.....",
"..#aa###aab#...",
".#baaaaaaabba..",
".bbacbdddcebdf.",
"#bbfgcddcgfbdh.",
"edbaggccgiadjjf",
"edddegkkiajjjjc",
"jjdjjfll#jjjjmc",
"ejjjcgiikcjjmmc",
"cjjcgiccggcjmnc",
"#mmficjjcg#mmof",
".cmhemmmmehmno.",
"..hmmmmmmmmnof.",
"...cnmmmmnoof..",
"....fcoooof...."};
