/* XPM */
static const char* const databaseUsersIcon_data[] = { 
"16 16 10 1",
"c c #000000",
"h c #000084",
"g c #0000ff",
"d c #008400",
"b c #00ff00",
"# c #848484",
"f c #c6c6c6",
"a c #c6ffc6",
". c None",
"e c #ffffff",
"..######........",
".#ababab#.......",
"#abababaccccccc.",
"#dababaccccccccc",
"#ddadacccccccccc",
"#dbaaccccccceefc",
"#ddadccccccfe#c.",
"#dbaacccc#eefgfc",
"#ddadcccceeeeefc",
"#dbaacccc#eeefc.",
"#ddadacccceeeec.",
"#dbaadccceffffc.",
"#ddadadc#ee#ch..",
".ccaadhhffef#hh.",
"...cchgghhhfhghh",
"......hhhhhhhhh."};

