/* XPM */
static const char* const databaseUsersDisconnectedIcon_data[] = { 
"16 16 9 1",
"b c #000000",
"g c #000084",
"f c #0000ff",
"# c #848484",
"c c #949494",
"e c #c6c6c6",
"a c #f7f7f7",
". c None",
"d c #ffffff",
"..######........",
".#aaaaaa#.......",
"#aaaaaaabbbbbbb.",
"#caaaaabbbbbbbbb",
"#ccacabbbbbbbbbb",
"#caaabbbbbbbddeb",
"#ccacbbbbbbed#b.",
"#caaabbbb#ddefeb",
"#ccacbbbbdddddeb",
"#caaabbbb#dddeb.",
"#ccacabbbbddddb.",
"#caaacbbbdeeeeb.",
"#ccacacb#dd#bg..",
".bbaacggeede#gg.",
"...bbgffgggegfgg",
"......ggggggggg."};

