/* XPM */
static const char* const deleteTabIcon_data[] = { 
"16 16 8 1",
". c None",
"b c #4a4a4a",
"f c #848484",
"# c #a5a5a5",
"c c #d6d6d6",
"d c #efefef",
"e c #ff0000",
"a c #ffffff",
"................",
"................",
".#aaaaaa#aaaaaa.",
".bccccccbdddeeda",
".bccccc#bddeeffa",
"baaaaeea#deeffda",
"b#dddffeeeeffdda",
"b#dddddfeeefddda",
"b#dddddeeeeeddda",
"b#dddddeeffeedda",
"b#ddddeeffdeedda",
"b#dddfeefdddfeda",
"b#dddeeffddddefa",
"b####eff#######a",
"bbbbbbbbbbbbbbbb",
"................"};
