/* XPM */
static const char* const deleteIcon_data[] = { 
"16 16 3 1",
". c None",
"# c #840000",
"a c #848484",
"................",
"................",
"...........##...",
".........a##aa..",
"...a##..a##aa...",
"....aa####aa....",
"......a###a.....",
"......#####.....",
".....a##aa##....",
".....##aa.##a...",
"....a##a...a#...",
"....##aa....#a..",
"....#aa.....aa..",
"................",
"................",
"................"};

