/* XPM */
static const char* const deleteRowIcon_data[] = { 
"16 16 5 1",
". c None",
"# c #4a4a4a",
"b c #4a4aa5",
"c c #ff0000",
"a c #ffffff",
"................",
"................",
"########........",
"aaaaaaa#........",
"aaaaaaa#........",
"aaaaaaa#........",
"###########..b..",
"cccccccccc#..bb.",
"cccccccccc#bbbbb",
"cccccccccc#..bb.",
"###########..b..",
"aaaaaaa#........",
"aaaaaaa#........",
"aaaaaaa#........",
"########........",
"................"};
