/* XPM */
static const char* const deleteUserIcon_data[] = { 
"16 16 8 1",
"b c #000000",
"f c #000084",
"e c #0000ff",
". c None",
"a c #848484",
"d c #c6c6c6",
"# c #ff0000",
"c c #ffffff",
".......##.......",
"......##aa......",
"##...##aabbbbbb.",
"aa####aabbbbbbbb",
"..a###abbbbbbbbb",
"..#####bbbbbccdb",
"..##aa##bbbdcab.",
".##aab##baccdedb",
"a##a.bba#cccccdb",
"##aa.bbb#acccdb.",
"#aa...bbbbccccb.",
"......bbbcddddb.",
".......baccabf..",
"......ffddcdaff.",
"......eefffdfeff",
"......fffffffff."};
