/* XPM */
static const char* const deleteQueryIcon_data[] = { 
"16 16 4 1",
". c None",
"b c #4a4a4a",
"# c #840000",
"a c #848484",
"................",
"................",
"........##......",
".......##aa..bbb",
"###...##aa...bbb",
"aaa####aa....bbb",
"...a###a.....bbb",
"...#####.....bbb",
"...##aa##....bbb",
"..##aa.##a......",
"..##a...a#...bbb",
".##aa....#a..bbb",
".#aa......a.....",
"..a.............",
"................",
"................"};

