/* XPM */
static const char* const designIcon_data[] = { 
"16 16 8 1",
". c None",
"# c #4a4a4a",
"d c #4affff",
"b c #a54a4a",
"e c #a5a5a5",
"a c #d6d6ce",
"f c #d6d6d6",
"c c #ffff4a",
"................",
"...........###a.",
".#.........#bb#.",
".##.......#c##..",
".#d#......#ce#..",
".#dd#....#cf#...",
".#ddd#...#ce#...",
".#d#dd#..###....",
".#d##dd#.##.....",
".#d#.#dd##......",
".#d####dd#......",
".#dddddddd#.....",
"###############.",
"#f#f#f#f#f#f#f#.",
"#fffffffffffff#.",
"###############."};

