/* XPM */
static const char* const editIcon_data[] = { 
"16 16 7 1",
". c None",
"# c #4a4a4a",
"c c #840000",
"b c #848484",
"d c #d6d6ce",
"e c #ffff00",
"a c #ffffff",
"................",
"#############...",
"#aaaaaaaaaaa####",
"#aaaaaaabbba#cc#",
"#abbbbaaaaaa####",
"#addddaaaaa#ee#.",
"#aaaaaaaaaa#ee#.",
"#abbbbbbbb#ee#..",
"#adddddddd#ee#..",
"#abbbbbbbb#e#...",
"#adddddddd#e#...",
"#aaaaaaaaa###...",
"#aaaaaaabb#a#...",
"#aaaaaaaaaaa#...",
"#aaaaaaaaaaa#...",
"#############..."};
