/* XPM */
static const char* const editUserIcon_data[] = { 
"16 16 10 1",
"b c #000000",
"h c #000084",
"g c #0000ff",
". c None",
"# c #4a4a4a",
"a c #840000",
"f c #848484",
"e c #c6c6c6",
"c c #ffff00",
"d c #ffffff",
"....####........",
"....#aa#........",
"....####bbbbbbb.",
"...#cc#bbbbbbbbb",
"...#cc#bbbbbbbbb",
"..#cc#bbbbbbddeb",
"..#cc#bbbbbedfb.",
"..#c#.bbbfddegeb",
"bb#c#bbbbdddddeb",
"bd##ddbbbfdddeb.",
"bf#fffbbbbddddb.",
"bddddddbbdeeeeb.",
"bffdfffbfddfbh..",
"bdddddhheedefhh.",
"bfffffgghhhehghh",
"bdddddhhhhhhhhh."};
