/* XPM */
static const char* const emptyPkIcon_data[] = { 
"10 11 3 1",
"# c #000000",
"a c None",
". c None",
"..#####...",
".#aaaaa#..",
".#aa#aa#..",
".#aaaaa#..",
"..#aaa#...",
"...#a#....",
"...#aa#...",
"...#a#....",
"...#aa#...",
"...#a#....",
"....#....."};

