/* XPM */
static const char* const eraserIcon_data[] = { 
"16 16 42 1",
"f c None",
"q c #424242",
"r c #525252",
"p c #5a295a",
"B c #5a5a08",
"l c #5a5a5a",
"C c #633963",
"t c #635a63",
"n c #636363",
"x c #733973",
"K c #735a08",
"j c #737373",
"z c #7b217b",
"y c #7b4a7b",
"M c #848442",
"# c #848484",
"E c #8c528c",
"H c #8c7b00",
"D c #943994",
"w c #946394",
"m c #949494",
"F c #9c529c",
"o c #9c9c9c",
"I c #a518a5",
"c c #a5a5a5",
"g c #adadad",
"L c #b57300",
"G c #bd63bd",
"i c #bdb5bd",
"k c #bdbdbd",
"A c #c673c6",
"e c #d6d6d6",
"a c #dedede",
"b c #e7e7e7",
". c #efefef",
"h c #f7f7f7",
"v c #ff0000",
"s c #ff0084",
"u c #ff00ff",
"N c #ffff00",
"J c #ffff84",
"d c #ffffff",
".#.a.bcdd.bcefff",
"#ghbbci.a.bighaf",
"jc.kealhbbclcmnf",
"oa.hdip.keaqlcre",
"#ohffsptffffffff",
"bhffussvwfffffff",
"ffffusvsxyffffff",
"ffffuvvvzABfffff",
"fffffCDEFGHBffff",
"ffffffyAGIJHBfff",
"fffffffKLMNJHBff",
"ffffffffKMMNJHBf",
"fffffffffKMMNJHB",
"ffffffffffKMMNJH",
"fffffffffffKMMNJ",
"ffffffffffffKMMM"};
