/* XPM */
static const char* const executeQueryIcon_data[] = { 
"16 16 3 1",
". c None",
"# c #840000",
"a c #848484",
"................",
".......##.......",
"......####......",
"......####......",
"......####......",
"......####......",
"......####......",
"......####......",
"......a##a......",
".......##.......",
"................",
".......##.......",
"......####......",
"......####......",
".......##.......",
"................"};

