/* XPM */
static const char* const exitIcon_data[] = { 
"16 16 5 1",
"# c #000000",
". c None",
"b c #848484",
"c c #ff0000",
"a c #ffffff",
"................",
"................",
".#############..",
".#aaaaaaaaaaa#..",
".#aaaaaaaaaaab..",
".#aaaaaaaaaaaa..",
".#aaaaaaaaaaac..",
".#aaaaaaaaaaacc.",
".#aaaaaaaccccccc",
".#aaaaaaaaaaacc.",
".#aaaaaaaaaaac..",
".#aaaaaaaaaaaa..",
".#aaaaaaaaaaab..",
".#aaaaaaaaaaa#..",
".#############..",
"................"};
