/* XPM */
static const char* const firstIcon_data[] = { 
"16 16 3 1",
"# c #000084",
". c None",
"a c #840000",
"................",
"................",
"................",
"....##.....a....",
"....##....aa....",
"....##...aaa....",
"....##..aaaa....",
"....##.aaaaa....",
"....##..aaaa....",
"....##...aaa....",
"....##....aa....",
"....##.....a....",
"................",
"................",
"................",
"................"};

