/* XPM */
static const char* const flipHIcon_data[] = { 
"16 16 4 1",
"b c #000000",
"# c #0000ff",
". c None",
"a c #ffff00",
"................",
"..##a.....a##...",
".###aa...aa###..",
"####aaa.aaa####.",
"####aaa.aaa####.",
"####aaa.aaa####.",
".###aa...aa###..",
"..##a.....a##...",
"................",
"................",
"..b.........b...",
".bb.........bb..",
"bbbbbb...bbbbbb.",
".bb.........bb..",
"..b.........b...",
"................"};

