/* XPM */
static const char* const flipVIcon_data[] = { 
"16 16 4 1",
"b c #0000ff",
". c None",
"# c #4a4a4a",
"a c #ffff00",
"................",
"..#......aaaa...",
".###....aaaaaa..",
"#####..aaaaaaaa.",
"..#....bbbbbbbb.",
"..#....bbbbbbbb.",
"..#.....bbbbbb..",
"..#......bbbb...",
"................",
"..#......bbbb...",
"..#.....bbbbbb..",
"..#....bbbbbbbb.",
"..#....bbbbbbbb.",
"#####..aaaaaaaa.",
".###....aaaaaa..",
"..#......aaaa..."};


