/* XPM */
static const char* const gridIcon_data[] = { 
"16 16 5 1",
". c None",
"# c #4a4a4a",
"c c #4a4aa5",
"a c #d6d6ce",
"b c #ffffff",
"................",
"................",
".##############.",
".#a#aaaaaaaaaa#.",
".##############.",
".#a#bbbbbbbbbb#.",
".#a#bccbccbccb#.",
".#a#bbbbbbbbbb#.",
".#a#bccbccbccb#.",
".#a#bbbbbbbbbb#.",
".#a#bccbccbccb#.",
".#a#bbbbbbbbbb#.",
".#a#bccbccbccb#.",
".#a#bbbbbbbbbb#.",
".##############.",
"................"};

