/* XPM */
static const char* const hammerIcon_data[]={
"16 16 5 1",
"c c #000000",
". c None",
"# c #4a4a4a",
"b c #840000",
"a c #848400",
"................",
"................",
".....####.......",
"....##aa###.....",
"......##aaa#....",
".......#aaa#....",
".......#aaa##...",
"......#####aa#..",
".....#b#..#a#...",
"....#b#....#....",
"...#b#.......c..",
"..#b#.......cc..",
".#b#..........c.",
"#b#............c",
"##..............",
"................"};
