/* XPM */
static const char* const historyScriptIcon_data[] = { 
"16 16 6 1",
"# c #000000",
". c None",
"d c #848400",
"c c #848484",
"b c #ffff00",
"a c #ffffff",
"................",
"................",
"....########....",
"...#ababab#c#...",
"...########c#...",
".....#ccccc.#...",
"....#d.d.d.#....",
"....#ababab#....",
"...#bababa#.....",
"...#ababab#.....",
"..#ababab####...",
"..#d.d.d.#c.#...",
"...#########....",
"................",
"................",
"................"};

