/* XPM */
static const char* const importTableIcon_data[] = { 
"16 16 5 1",
"a c #000000",
". c None",
"# c #4a4a4a",
"b c #4a4aa5",
"c c #ffffff",
"................",
"...#########....",
"....aaaaaaa.....",
".....aaaaa......",
"......aaa.......",
".......a........",
"................",
"...bbbbbb.......",
"...bbbbbb.......",
"...#cccca.......",
"...#c##bbbbbb...",
"...#cccbbbbbb...",
"...#####cccc#...",
".......#c##c#...",
".......#cccc#...",
".......######..."};

