/* XPM */
static const char* const informationIcon_data[] = { 
"15 15 16 1",
". c None",
"g c #24489a",
"e c #576794",
"d c #8191ae",
"l c #91afd5",
"k c #b1c7e3",
"n c #bcdbf6",
"h c #d2ddec",
"m c #d3f1ff",
"j c #dee9fc",
"b c #e4e9ef",
"# c #ebf0f7",
"i c #ebf7ff",
"a c #f7f7fb",
"f c #f7ffff",
"c c #ffffff",
"...###aa##ba...",
"..baccdeaffbb..",
".b#ffagghafahh.",
"bbaiifhhiiiijkb",
"h#iiideghjjj#kl",
"kjjjjjggkjjmmne",
"kjjjjjggkmmmmke",
"khjmmmggkmnnnle",
"hknmmmggknnnked",
".llnnlggennlde.",
".blllkknnkleek.",
"..bldddlleeeh..",
"....bhelleh....",
"......bdld.....",
".......#dd....."};
