/* XPM */
static const char* const insertRowIcon_data[] = { 
"16 16 5 1",
"c c #00ff00",
"# c #4a4a4a",
"b c #4a4aa5",
". c None",
"a c #ffffff",
"................",
"#######.........",
"aaaaaa#.........",
"aaaaaa#.........",
"aaaaaa#.........",
"#######.........",
"......b..#######",
".....bb..#cccccc",
"....bbbbb#cccccc",
".....bb..#cccccc",
"......b..#######",
"#######.........",
"aaaaaa#.........",
"aaaaaa#.........",
"aaaaaa#.........",
"#######........."};
