/* XPM */
static const char* const keyboardIcon_data[] = { 
"16 16 5 1",
"# c #000000",
"c c None",
"b c #848484",
"a c #c6c6c6",
". c #ffffff",
"...#ab.b#a.#...b",
"..#.#ab#.ba.#.b#",
"##...##...ba.b##",
"....b#.....ba#.#",
"b..b#.###..##...",
"abb#ba....b#....",
"#a#..ba..b#b.##.",
"b#....bab##ab...",
"#..#...b#..#ab..",
"a.#...b#....#abb",
"ba...b#.##...#a#",
".ba.b##b.#...b#c",
"..ba#c#ab...b#cc",
"..##ccc#ab.b#ccc",
".b#ccccc#ab#cccc",
"b#ccccccc##ccccc"};
