/* XPM */
static const char* const killProcessIcon_data[] = { 
"16 16 5 1",
"# c #000000",
". c None",
"b c #840000",
"c c #848484",
"a c #ffffff",
".......##.......",
"......##a##.....",
".....#a#a#a#....",
".....#a#a#a.....",
".....#a#a...bb..",
".......#..cbbcc.",
".###cbb#.cbbcc..",
".#aa#ccbbbbcc#..",
"..#aa#.cbbbca#..",
"...#a..bbbbba#..",
"...#a.cbbccbb#..",
"......bbccabbc..",
".....cbbcaaacb..",
".....bbcc###.bc.",
".....bcc.....cc.",
"................"};
