/* XPM */
static const char* const lastIcon_data[] = { 
"16 16 3 1",
"a c #000084",
". c None",
"# c #840000",
"................",
"................",
"................",
"....#.....aa....",
"....##....aa....",
"....###...aa....",
"....####..aa....",
"....#####.aa....",
"....####..aa....",
"....###...aa....",
"....##....aa....",
"....#.....aa....",
"................",
"................",
"................",
"................"};

