/* XPM */
static const char* const leftArrowIcon_data[] = { 
"16 16 3 1",
"a c #00428c",
"# c #0084ff",
". c None",
"................",
"................",
"................",
".........#......",
"........#a......",
".......###......",
"......###a......",
".....###a#......",
"......#a#a......",
".......#a#......",
"........#a......",
".........#......",
"................",
"................",
"................",
"................"};
