/* XPM */
static const char* const loadIcon_data[] = {
"16 16 7 1",
". c None",
"a c #4a4a4a",
"d c #4a4aa5",
"e c #a5a54a",
"# c #ff0000",
"b c #ffff4a",
"c c #ffffff",
"....###.........",
".#.#...#........",
".##.....aaa.....",
".###...abcbaaaa.",
".......acbcbcba.",
"aaaaaaaabcbcbca.",
"dddddddacbaaaaaa",
"dddddddabaeeeeea",
"dccccccaaeeeeea.",
"dcaacaaaaaaaaa..",
"dcccccccd.......",
"dcaacaacd.......",
"dcccccccd.......",
"dcaacaacd.......",
"dcccccccd.......",
"ddddddddd......."};
