/* XPM */
static const char* const minusIcon_data[] = { 
"10 10 3 1",
". c None",
"# c #840000",
"a c #ff0000",
"..........",
"..........",
"..........",
"##########",
"#aaaaaaaa#",
"#aaaaaaaa#",
"##########",
"..........",
"..........",
".........."};
