/* XPM */
static const char* const mulIcon_data[] = { 
"10 11 16 1",
"l c #0ace0a",
"m c #0cb90c",
"j c #2b972b",
"k c #427342",
"i c #4ede4e",
"b c #5d835d",
"c c #5e675e",
"g c #75cb75",
"n c #84d684",
"f c #8cd68c",
"d c #adadad",
"h c #b9cdb9",
"a c #bde7bd",
"e c #efefef",
"# c #eff7ef",
". c None",
"..........",
"..#abcde..",
".#afgbche.",
"#afgijkche",
"afgilmjkcd",
"gnilllmjcc",
"afgilmjkcd",
"#afgijkche",
".#afgbche.",
"..#abcde..",
".........."};

