/* XPM */
static const char* const newDatabaseIcon_data[] = { 
"16 16 8 1",
"f c #008400",
"c c #00ff00",
"e c #4a4a4a",
"d c #848400",
"# c #949494",
"b c #c6ffc6",
". c None",
"a c #ffff00",
"...#....######..",
"a..#a..#bcbcbc#.",
"#a.#d.#bcbcbcbce",
".#a#a##fbcbcbcbe",
".a#ad.#fcbbfcffe",
"###daa#ffbfbfcfe",
"..d#dd#fcbbfcffe",
"#a.#a.#ffbfbfcfe",
"...##.#fcbbfcffe",
"......#ffbfbfcfe",
"......#fcbbfcffe",
"......#ffbfbfcfe",
"......#fcbbfcffe",
"......#ffbfbfcfe",
".......eebbfcee.",
".........eeee..."};
