/* XPM */
static const char* const newTableIcon_data[] = { 
"16 16 7 1",
". c None",
"e c #4a4a4a",
"d c #4a4aa5",
"# c #a5a5a5",
"c c #d6d6d6",
"a c #ffff4a",
"b c #ffffff",
"................",
"...#............",
"...#a...........",
"#a.#b..#........",
".#b#a.#b........",
"ab#ab#ac#.......",
"###bacb#dddddddd",
"..a#accddddddddd",
"#..#cbbbbbbbbbbe",
"a..#cbeebeebeebe",
"....#bbbbbbbbbbe",
"....ebeebeebeebe",
"....ebbbbbbbbbbe",
"....ebeebeebeebe",
"....ebbbbbbbbbbe",
"....eeeeeeeeeeee"};
