/* XPM */
static const char* const newTabIcon_data[] = { 
"16 16 8 1",
". c None",
"b c #4a4a4a",
"f c #848484",
"# c #a5a5a5",
"c c #d6d6d6",
"d c #efefef",
"e c #ffff08",
"a c #ffffff",
"................",
"................",
".#aaaaaa#aaaaaa.",
".bccccccbdddddda",
".bccccc#bdddddda",
"baaaaaaa#ddeddda",
"b#dddddddefefdda",
"b#dddddfeefceeda",
"b#ddddeefeccecda",
"b#dddddcccfeffda",
"b#dddddeedeeedda",
"b#dddddeffeffdda",
"b#ddddddfcedddda",
"b##############a",
"bbbbbbbbbbbbbbbb",
"................"};
