/* XPM */
static const char* const newUserIcon_data[] = { 
"16 16 8 1",
"b c #000000",
"f c #000084",
"e c #0000ff",
"a c #848484",
"d c #c6c6c6",
". c None",
"# c #ffff00",
"c c #ffffff",
"..#a............",
"a.#a.#.bbbbbbb..",
"#a#a#abbbbbbbbb.",
"##.#.##abbbbbbb.",
"a...aabbbbbccdb.",
"#a.#bbbbbbdcab..",
"..a.#abbaccdedb.",
".#a#a#bbcccccdb.",
"...#abbbacccdb..",
".....bbbbccccb..",
".....bbbcddddb..",
"......baccabf...",
".....ffddcdaff..",
".....eefffdfeff.",
".....fffffffff..",
"................"};
