/* XPM */
static const char* const openFolderIcon_data[] = { 
"17 16 7 1",
". c None",
"d c #4a4a4a",
"e c #848484",
"# c #949494",
"b c #c6c6c6",
"c c #ffff00",
"a c #ffffc6",
".................",
".................",
"...#####.........",
"..#aaaaa#........",
".#abcbcba######..",
".#acbcbcbaaaaa#d.",
".#abcbcbcbcbcb#d.",
"#############c#d.",
"#aaaaaaaaaa#db#d.",
"#abcbcbcbcbcd##d.",
".eabcbcbcbcb#d#d.",
".eacbcbcbcbcbd#d.",
"..#acbcbcbcbc#dd.",
"..############dd.",
"...ddddddddddddd.",
"................."};
