/* XPM */
static const char* const otherIcon_data[] = { 
"10 11 15 1",
"m c #636363",
"k c #6f6f6f",
"h c #7b7b7b",
"e c #8c8c8c",
"l c #9c9c9c",
"d c #adadad",
"f c #b5b5b5",
"j c #bdbdbd",
"i c #c6c6c6",
"g c #cecece",
"b c #d6d6d6",
"a c #dedede",
"c c #efefef",
"# c #f7f7f7",
". c None",
"...#abc...",
"..#adefc..",
".#agfhhfc.",
"#agijekhfc",
"bgijdlekhd",
"jiifdllhmk",
"bgijdlekhd",
"#agijekhfc",
".#agfhhfc.",
"..#adefc..",
"...#abc..."};

