/* XPM */
static const char* const pictureIcon_data[] = { 
"16 16 6 1",
"a c #000000",
". c None",
"c c #00ffff",
"# c #848484",
"d c #a5cef7",
"b c #ffffff",
"................",
"................",
"................",
"......#aa#......",
"..aa.#abba#.aa..",
".aaaaaaaaaaaaaa.",
".abbbaaaaaabbba.",
".abbaacccdaabba.",
".a##acccddda##a.",
".a##accddd#a##a.",
".a##acddd##a##a.",
".a##aadd##aa##a.",
".#aaaaaaaaaaaa#.",
"......#aa#......",
"................",
"................"};
