/* XPM */
static const char* const pingIcon_data[] = { 
"16 16 16 1",
". c None",
"c c #39395a",
"m c #394252",
"i c #3d4a5f",
"e c #4a5a6b",
"n c #526b7b",
"l c #5a6384",
"j c #5a6b84",
"h c #5ebff5",
"k c #7378af",
"d c #8888d2",
"g c #8cbfe4",
"f c #949cd3",
"b c #a9aece",
"a c #b1d3ed",
"# c #dbe5e9",
"......####aaab..",
"......bccccccd..",
"......bccccccde.",
".bbbbfffdccccde.",
".bgaa#agdccccde.",
".bgaaaagdccccde.",
".bgggghhdccccde.",
".bhhhhhhddddiij.",
".bhhhhhhdafklj..",
".bhhhhhhd#bfdk..",
".fkdddka###bfl..",
"..faafddffffle..",
".f###affieeee...",
".f####bdi.......",
".ffffffmn.......",
"..fjeeen........"};

