/* XPM */
static const char* const printIcon_data[] = { 
"16 16 8 1",
". c None",
"# c #4a4a4a",
"b c #4a4aa5",
"e c #848484",
"c c #bdbdbd",
"d c #d6d6ce",
"f c #ffff00",
"a c #ffffff",
"................",
".....#########..",
"....#aaaaaaaa#..",
"....#abbbbba#...",
"...#aaaaaaaa#...",
"...#abbbbba####.",
"..#aaaaaaaa#c#c#",
".##########c#c##",
"#dddddddddd#c#c#",
"#############cc#",
"#ddddddeeedd#c#.",
"#ddddddfffdd###.",
"#############c#.",
".#ddddddddd#c#..",
"..###########...",
"................"};
