/* XPM */
static const char* const propertiesIcon_data[] = { 
"16 16 5 1",
"c c #000000",
"a c #000084",
". c None",
"# c #4a4a4a",
"b c #ffffff",
"................",
".......######.aa",
"......#......#aa",
".....#.#......aa",
"#####.#.#.....aa",
"#bb#.#.#.#...#aa",
"#b#.#b#.#.###.aa",
"#b##bbb#.#b#...a",
"#bbbbbbb#bb#....",
"#bbbbbbbbbb#....",
"#bccbcccccb#....",
"#bbbbbbbbbb#....",
"#bccbcccccb#....",
"#bbbbbbbbbb#....",
"############....",
"................"};
