/* XPM */
static const char* const queryTypesIcon_data[] = { 
"16 16 6 1",
". c None",
"a c #4a4a4a",
"# c #4a4aa5",
"c c #848484",
"d c #d6d6ce",
"b c #ffffff",
"................",
".......########.",
".......########.",
".......abbbbbba.",
"...########bcba.",
"...########bbba.",
"...abbbabbabcba.",
"...abcbabbabbba.",
"...abbbaaaaaaaa.",
"...abcbbdba.....",
"...abbbbbba.....",
"...aaaaaaaa.....",
"................",
"#####...........",
".###............",
"..#............."};

