/* XPM */
static const char* const redoIcon_data[] = { 
"16 16 3 1",
". c None",
"a c #4a4aa5",
"# c #848484",
"................",
"................",
"................",
"................",
"....#aaaa.......",
"...#a....aa...a.",
"...a.......a.aa.",
"...a........aaa.",
"...a.......aaaa.",
"...#a.....aaaaa.",
"....a#..........",
"................",
"................",
"................",
"................",
"................"};
