/* XPM */
static const char* const refreshIcon_data[] = { 
"16 16 10 1",
"b c #000000",
"g c #006666",
"h c #009966",
"e c #339900",
"# c #868686",
"f c #cccccc",
"a c #f8f8f8",
". c None",
"c c #ffff99",
"d c #ffffff",
"..##########....",
"..#aaaaaaaa#b...",
"..#aaaaacac#db..",
"..#aaaaaecabbbb.",
"..#aaaaaeecaffb.",
"..#aaceeeeecafb.",
"..#acghaeecacfb.",
"..#aagacecacafb.",
"..#acgcacacgcfb.",
"..#aacacecagafb.",
"..#acaceeahgcfb.",
"..#aaceeeeecafb.",
"..#acaceeacacfb.",
"..#aacacecacafb.",
"..#fffffffffffb.",
"..bbbbbbbbbbbbb."};

