/* XPM */
static const char* const registerServerIcon_data[] = { 
"16 16 15 1",
"e c #000000",
"j c #0000ff",
"f c #008400",
"k c #008484",
". c None",
"h c #00ff84",
"i c #00ffff",
"b c #4a4a4a",
"m c #848484",
"# c #947bf7",
"d c #949494",
"g c #d6d6ce",
"a c #ded6ff",
"l c #ff0000",
"c c #ffffff",
".########.......",
"#aaaaaaa#b......",
"#cccccc##b......",
"#aaaaaa#bb......",
"#######b#b......",
"#ccccccdddddd...",
"#aaaaaddcccccbb.",
"#####ddcceeeccb.",
"#ccccdccefggeccb",
"#aaaadceeghbiecb",
"#aaaadceibbijecb",
"#aaaadcegikkjecb",
"#aaaldccegbjeccb",
"#aaaaamcceeeccb.",
".bbbbbmmcccccbb.",
"........bbbbb..."};
