/* XPM */
static const char* const renameTableIcon_data[] = {
"16 16 6 1",
". c None",
"# c #4a4a4a",
"b c #840000",
"d c #848484",
"a c #a5cef7",
"c c #ffff00",
"................",
"#######.........",
"#.a.a.#.........",
"#a.a.a#.........",
"#.a.a.#.....###.",
"#######.....#bb#",
"...........#c##.",
"...........#cd#.",
".#######..#ca#..",
".#.a.a.#..#cd#..",
".#a.a.a#.#ca#...",
".#.a.a.#.#cd#...",
".#######.###....",
".........##.....",
"...#.#.#.#......",
"................"};

