/* XPM */
static const char* const rotateIcon_data[] = { 
"16 16 2 1",
". c None",
"# c #4a4a4a",
"................",
"................",
".....##..###....",
"....#....##.....",
"...#.....#.#....",
"..#.........#...",
"..#.........#...",
"..#.........#...",
"..#.........#...",
"..#.........#...",
"...#.#.....#....",
"....##....#.....",
"...###..##......",
"................",
"................",
"................"};
