/* XPM */
static const char* const saveAllIcon_data[] = { 
"16 16 6 1",
". c None",
"# c #4a4a4a",
"c c #848484",
"a c #a5a54a",
"d c #d6d6ce",
"b c #ffffff",
"....###########.",
"....#a#bbbbb#c#.",
"..#############.",
"..#a#bbbbb#c#a#.",
"#############a#.",
"#a#bbbbb#c#a#a#.",
"#a#bbbbb###a#a#.",
"#a#bbbbb#a#a#a#.",
"#a#bbbbb#a#a#a#.",
"#aa#####aa#a#a#.",
"#aaaaaaaaa#a###.",
"#aa######a#a#...",
"#aa####d#a###...",
"#aa####d#a#.....",
".##########.....",
"................"};
