/* XPM */
static const char* const saveIcon_data[] = { 
"16 16 6 1",
". c None",
"# c #4a4a4a",
"c c #848484",
"a c #a5a54a",
"d c #d6d6ce",
"b c #ffffff",
"................",
"................",
"..#############.",
"..#a#bbbbbbb#c#.",
"..#a#bbbbbbb###.",
"..#a#bbbbbbb#a#.",
"..#a#bbbbbbb#a#.",
"..#a#bbbbbbb#a#.",
"..#aa#######aa#.",
"..#aaaaaaaaaaa#.",
"..#aa#######aa#.",
"..#aa#dd####aa#.",
"..#aa#dd####aa#.",
"..#aa#dd####aa#.",
"...############.",
"................"};
