/* XPM */
static const char* const savePixmapIcon_data[] = { 
"16 16 51 1",
". c None",
"U c #0650fe",
"T c #06a2fe",
"S c #06eff8",
"M c #185dff",
"L c #18a9ff",
"K c #18f0f8",
"E c #2c6afe",
"D c #2cb0fe",
"C c #2cf1f8",
"a c #4178fc",
"w c #41b7fc",
"v c #41f1f7",
"# c #4a4a4a",
"R c #4dfe06",
"p c #5687fb",
"o c #56befb",
"n c #56f0f6",
"J c #5bff18",
"V c #6106fe",
"B c #68fe2c",
"g c #6b95f9",
"f c #6bc4f9",
"e c #6bf0f5",
"N c #6d18ff",
"u c #77fc41",
"F c #792cfe",
"x c #8641fc",
"m c #86fb56",
"q c #9356fb",
"d c #94f96b",
"h c #9f6bf9",
"j c #a6caf0",
"W c #b206fe",
"O c #b818ff",
"G c #bd2cfe",
"y c #c341fc",
"r c #c856fb",
"i c #cd6bf9",
"Q c #ecfa06",
"I c #eefa18",
"c c #eff66b",
"l c #eff856",
"t c #eff941",
"A c #effa2c",
"b c #f9a26b",
"k c #fb9756",
"s c #fc8a41",
"P c #fe6706",
"z c #fe7e2c",
"H c #ff7218",
"................",
".##############.",
".#a#bcdefghi#j#.",
".#a#klmnopqr###.",
".#a#stuvwaxy#a#.",
".#a#zABCDEFG#a#.",
".#a#HIJKLMNO#a#.",
".#a#PQRSTUVW#a#.",
".#aa########aa#.",
".#aaaaaaaaaaaa#.",
".#aa#########a#.",
".#aa######jj#a#.",
".#aa######jj#a#.",
".#aa######jj#a#.",
".##############.",
"................"};

