/* XPM */
static const char* const saveToClipboardIcon_data[] = { 
"16 16 6 1",
". c None",
"# c #4a4a4a",
"c c #4a4aa5",
"a c #a5a54a",
"d c #d6d6ce",
"b c #ffffff",
".......#########",
".......#a#bbb#a#",
".......#a#bbb#a#",
"######.#aa###aa#",
"#bbbb###aaaaaaa#",
"#bbbb#b#a#####a#",
"#b##b#c#a#dd##a#",
"#bbbbbc#a#dd##a#",
"#b####cb########",
"#bbbbbcb##bcccc.",
"#b####cbbbbbbbc.",
"#bbbbbcb#####bc.",
"######cbbbbbbbc.",
"......cb#####bc.",
"......cbbbbbbbc.",
"......ccccccccc."};
