/* XPM */
static const char* const saveGridResultsIcon_data[] = { 
"16 16 6 1",
". c None",
"# c #4a4a4a",
"c c #4a4aa5",
"a c #a5a54a",
"d c #d6d6ce",
"b c #ffffff",
".......#########",
".......#a#bbb#a#",
".......#a#bbb#a#",
".......#aa###aa#",
".......#aaaaaaa#",
".......#a#####a#",
"ccccccc#a#dd##a#",
"ccccccc#a#dd##a#",
"cbbbbbbb########",
"#b##b##b##b#....",
"#bbbbbbbbbb#....",
"#b##b##b##b#....",
"#bbbbbbbbbb#....",
"#b##b##b##b#....",
"#bbbbbbbbbb#....",
"############...."};
