/* XPM */
static const char* const scalePictureIcon_data[] = { 
"15 16 16 1",
"g c #003973",
"m c #00529c",
"n c #0052a5",
". c None",
"j c #08529c",
"l c #085aa5",
"k c #0863b5",
"i c #105a94",
"f c #106bb5",
"h c #347bc0",
"e c #73a8da",
"c c #bd3131",
"# c #c62929",
"b c #de4242",
"d c #ecbac0",
"a c #ff6363",
"...............",
".......#.......",
"......abc......",
".......a.......",
".......d.......",
"...............",
".....deefg.....",
".c...edeef...c.",
"#bad.hefij.dab#",
".a...khlmh...a.",
".....gkmnn.....",
"...............",
".......d.......",
".......a.......",
"......abc......",
".......#......."};
