/* XPM */
static const char* const selectQueryIcon_data[] = { 
"16 16 5 1",
". c None",
"b c #4a4a4a",
"# c #4a4aa5",
"a c #949494",
"c c #ffffff",
"................",
"....###########.",
"....###########a",
"....bcccccccccba",
"....bcbcbcbcbcba",
"####b######cccba",
"####b######cbcba",
"bcccbcccccbcccba",
"bcbcbcbcbcbcbcba",
"bcccbcccccbcccba",
"bcbcbbbbbbbbbbba",
"bcccccccccbaaaaa",
"bcbcbcbcbcba....",
"bcccccccccba....",
"bbbbbbbbbbba....",
".aaaaaaaaaaa...."};

