/* XPM */
static const char* const serverDisconnectedIcon_data[] = { 
"16 16 9 1",
". c None",
"b c #4a4a4a",
"f c #840000",
"g c #848484",
"# c #947bf7",
"d c #949494",
"a c #ded6ff",
"e c #ff0000",
"c c #ffffff",
".########.......",
"#aaaaaaa#b......",
"#cccccc##b......",
"#aaaaaa#bb......",
"#######b#b......",
"#ccccccdddddd...",
"#aaaaaddcccccbb.",
"#####ddcccccccb.",
"#ccccdcccccccccb",
"#aaaadccceefcccb",
"#aaaadccceefcccb",
"#aaaadcccfffcccb",
"#aaaedcccccccccb",
"#aaaaagcccccccb.",
".bbbbbggcccccbb.",
"........bbbbb..."};

