/* XPM */
static const char* const serverConnectedIcon_data[] = { 
"16 16 10 1",
". c None",
"e c #008400",
"f c #42c600",
"b c #4a4a4a",
"h c #848484",
"# c #947bf7",
"d c #949494",
"a c #ded6ff",
"g c #ff0000",
"c c #ffffff",
".########.......",
"#aaaaaaa#b......",
"#cccccc##b......",
"#aaaaaa#bb......",
"#######b#b......",
"#ccccccdddddd...",
"#aaaaaddcccccbb.",
"#####ddcceccccb.",
"#ccccdccceeccccb",
"#aaaadcccefecccb",
"#aaaadccceffeccb",
"#aaaadccceffcccb",
"#aaagdcccefccccb",
"#aaaaahcceccccb.",
".bbbbbhhcccccbb.",
"........bbbbb..."};
