/* XPM */
static const char* const serverAdministrationIcon_data[] = { 
"16 16 15 1",
"f c #000000",
"j c #000084",
". c None",
"k c #00ffff",
"c c #4a4a4a",
"i c #840000",
"a c #848484",
"# c #947bf7",
"g c #949494",
"m c #9c9c9c",
"e c #c6c6c6",
"l c #cecece",
"b c #ded6ff",
"h c #ff0000",
"d c #ffffff",
".########....aaa",
"#bbbbbbb#c...ada",
"#dddddd##c...aea",
"#bbbbbb#cc...ff.",
"#######cfdfffff.",
"#ddddddfdaddddaf",
"#bbbbbbfafadafaf",
"########fcfefedf",
"#ddddgdd#cfeahi.",
"#bbbbbbb#cfjahi.",
"#bbbbbbb#cjdfhi.",
"#bbbbbbb#c.kfhi.",
"#bbbhgbb#c.kfhi.",
"#bbbbbbb#c.kfhi.",
".cccccccc..kffa.",
"..........lmm..."};

