/* XPM */
static const char* const showProcessListIcon_data[] = { 
"16 16 5 1",
"a c #000000",
"# c #000084",
". c None",
"c c #848484",
"b c #ffffff",
"...#####........",
"...#####........",
"...abbba........",
"#####bba........",
"#####aaa........",
"abbba...........",
"abbba.aaa....aaa",
"aaaaa.aa......aa",
"......aa.c##c.aa",
"......aa.#..#.aa",
"......aa...#c.aa",
"......aa..##..aa",
"......aa......aa",
"......aa..##..aa",
"......aaa....aaa",
"................"};

