/* XPM */
static const char* const sqlIcon_data[] = { 
"16 16 2 1",
". c None",
"# c #4a4aa5",
"................",
"................",
"................",
"................",
"..##...###...##.",
".##.#.##.##..##.",
".##...##.##..##.",
".###..##.##..##.",
"..###.##.##..##.",
"...##.##.##..##.",
".#.##.##.##..##.",
"..##...###...###",
".........##.....",
"................",
"................",
"................"};

