/* XPM */
static const char* const stylesIcon_data[]={
"16 16 7 1",
"e c None",
"b c #109c4a",
". c #4a4a4a",
"a c #8cdef7",
"# c #bdefff",
"d c #c6c6a5",
"c c #ffff4a",
"................",
".##aaaaaa###aaa.",
".###a.aa##a..aa.",
".aaa.b.aaa.cc.a.",
".aa..b.##a.cc.a.",
".a.b.b..##a..#a.",
".a.b.b.b.#a###a.",
".aa.bb.b.aaaaaa.",
".....bb.........",
".ddd.b.dddddddd.",
".ddd.b.dd.dd..d.",
".ddd.b.d.d.dddd.",
".dd....d....d.d.",
"......ddddddddd.",
"................",
"eeeeeeeeeeeeeeee"};
