/* XPM */
static const char* const textEditorIcon_data[] = { 
"15 16 9 1",
"# c #000000",
". c None",
"d c #00ffff",
"a c #840000",
"f c #848484",
"e c #a5cef7",
"g c #d6e7f7",
"b c #ffff00",
"c c #ffffff",
"..........####.",
"..........#aa#.",
"..........####.",
"....#.#.##bb#..",
"...#c#c#c#bb#..",
"..#deded#bb#f..",
"..#e#####bb#f..",
".#ededed#b##f..",
".#d####e#b##f..",
"#dededed##g#f..",
"#ededed#eee#f..",
"#dedede#ccg#f..",
".######eeee#f..",
"....#cccccg#f..",
".....######ff..",
"......ffffff..."};
