/* XPM */
static const char* const tileIcon_data[] = { 
"16 16 3 1",
". c None",
"# c #4a4aa5",
"a c #ffffff",
"................",
"................",
".#############..",
".#a#####a#####..",
".#############..",
".#aaaaa#aaaaa#..",
".#aaaaa#aaaaa#..",
".#aaaaa#aaaaa#..",
".#aaaaa#aaaaa#..",
".#aaaaa#######..",
".#aaaaa#aaaaa#..",
".#aaaaa#aaaaa#..",
".#aaaaa#aaaaa#..",
".#aaaaa#aaaaa#..",
".#############..",
"................"};
