/* XPM */
static const char* const timerIcon_data[] = { 
"16 16 11 1",
"# c #000000",
". c None",
"d c #636363",
"h c #7b7b7b",
"a c #848484",
"i c #9c9c9c",
"b c #cecece",
"e c #dedede",
"g c #e7e7e7",
"f c #ff0000",
"c c #ffffce",
"................",
"......####......",
"...#...##...#...",
"..#.a######a.#..",
".#.##bccccb##.#.",
"d.#bcccaccccb#.#",
".a#ccccccccce#a.",
".#bcccfccccccb#.",
".#cccccfccccce#.",
".#cacccc#####e#.",
".#ccccc#bbbbbb#.",
".#bccc#bcccccb#.",
".a#cc#bccccce#a.",
"..#bgccchceeb#..",
"...##beeeeb##...",
"....biiiiiib...."};

