/* XPM */
static const char* const toggleIcon_data[] = { 
"16 16 3 1",
"a c #000084",
". c None",
"# c #840000",
"................",
"................",
"................",
".#..............",
".##........a....",
".###.....a.a.a..",
".####.....aaa...",
".#####..aaaaaaa.",
".####.....aaa...",
".###.....a.a.a..",
".##........a....",
".#..............",
"................",
"................",
"................",
"................"};

