/* XPM */
static const char* const trashIcon_data[] = { 
"16 16 8 1",
". c None",
"# c #4a4a4a",
"f c #adad00",
"e c #bdbd00",
"d c #d6d600",
"c c #f7f700",
"b c #ffff00",
"a c #ffffc6",
"................",
"......###.......",
"...#########....",
"..#abbccddee#...",
"..###########...",
"...#c#d#e#f#....",
"...#c#d#e#f#....",
"...#c#d#e#f#....",
"...#c#d#e#f#....",
"...#c#d#e#f#....",
"...#c#d#e#f#....",
"...#c#d#e#f#....",
"...#c#d#e#f#....",
"...#c#d#e#f#....",
"...#c#d#e#f#....",
"....#######....."};

