/* XPM */
static const char* const undoIcon_data[] = { 
"16 16 3 1",
". c None",
"# c #4a4aa5",
"a c #848484",
"................",
"................",
"................",
"................",
".......####a....",
".#...##....#a...",
".##.#.......#...",
".###........#...",
".####.......#...",
".#####.....#a...",
"..........a#....",
"................",
"................",
"................",
"................",
"................"};
