/* XPM */
static const char* const uniIcon_data[] = { 
"10 11 16 1",
"h c #6b4a4a",
"n c #6b6b6b",
"f c #7f7373",
"j c #923737",
"g c #adadad",
"m c #c10404",
"e c #c58181",
"l c #cd1a1a",
"k c #d0aaaa",
"i c #d66060",
"b c #d6cece",
"d c #e7bdbd",
"a c #e7cece",
"c c #efefef",
"# c #f7efef",
". c None",
"...#abc...",
"..#defgc..",
".#deehfgc.",
"#deiijhfgc",
"keiilmjhfg",
"eeilmmmjhn",
"keiilmjhfg",
"#deiijhfgc",
".#deehfgc.",
"..#defgc..",
"...#abc..."};

