/* XPM */
static const char* const updateQueryIcon_data[] = { 
"16 16 6 1",
". c None",
"# c #4a4a4a",
"d c #4a4aa5",
"a c #840000",
"c c #848484",
"b c #ffff00",
"................",
"................",
"................",
".......###......",
".......#aa#..###",
"......#b##cc.###",
"......#bb#cc.###",
".....#bb#cc..###",
".....#bb#c...###",
".d.d.###c....###",
".....##c........",
".d.d.#c......###",
".............###",
".d.d............",
"................",
"................"};

