/* XPM */
static const char* const userIcon_data[] = { 
"16 16 7 1",
"# c #000000",
"e c #000084",
"d c #0000ff",
"c c #848484",
"b c #c6c6c6",
". c None",
"a c #ffffff",
"................",
"......#######...",
".....#########..",
"....##########..",
"...#######aab#..",
"...######bac#...",
"...####caabdb#..",
"...####aaaaab#..",
"...####caaab#...",
"....####aaaa#...",
"....###abbbb#...",
".....#caac#e....",
"....eebbabcee...",
"....ddeeebedee..",
"....eeeeeeeee...",
"................"};


