/* XPM */
static const char* const warningIcon_data[] = { 
"15 15 15 1",
". c None",
"g c #3f3831",
"k c #656b96",
"b c #94938e",
"d c #b8a617",
"l c #deba00",
"f c #e8cf0c",
"m c #eedd7d",
"i c #f1d400",
"h c #ffde00",
"j c #ffe700",
"a c #ffef06",
"e c #fff758",
"# c #fffb9c",
"c c #ffffef",
"......##.......",
".....#aab......",
"....caaadb.....",
"....#aaaab.....",
"...cefggadb....",
"...#hfggfab....",
"..cfafggaadb...",
"..#iajgbaajb...",
"..fhjaddjaadb..",
".#iahhddhhahk..",
".fhhhhllhhhalb.",
"mlhhhlggfhhahk.",
"fiiiifgbfiiiidb",
"mlllllllllllldk",
".bkkkkkkkkkkkk."};
