/* XPM */
static const char* const windowIcon_data[] = { 
"16 16 3 1",
". c None",
"# c #4a4aa5",
"a c #ffffff",
"................",
"................",
".#############..",
".#a###########..",
".#############..",
".#aaaaaaaaaaa#..",
".#aaaaaaaaaaa#..",
".#aaaaaaaaaaa#..",
".#aaaaaaaaaaa#..",
".#aaaaaaaaaaa#..",
".#aaaaaaaaaaa#..",
".#aaaaaaaaaaa#..",
".#aaaaaaaaaaa#..",
".#aaaaaaaaaaa#..",
".#############..",
"................"};
