/* XPM */
static char *mysqlcc[] = {
/* columns rows colors chars-per-pixel */
"32 32 16 1",
"  c black",
". c #191919",
"X c gray20",
"o c #00007F",
"O c #007F7F",
"+ c #7F007F",
"@ c #4C4C4C",
"# c #666667",
"$ c gray50",
"% c blue",
"& c cyan",
"* c gray60",
"= c #B2B2B2",
"- c gray80",
"; c gray90",
": c gray100",
/* pixels */
"        ..    .. .              ",
" :::::::;-;;-;-=$o@oo#$-;:::::: ",
" ::::::;-====***oOoOXoo$-;::::: ",
" ::::;;-==*=**%O$#o@oo@O=;::::: ",
" :;;;;-=&=-=-==**O$O#$**-;::::: ",
" ::;;-==---;---&=*%#O=;;::::::: ",
" :;;==-----;-;;-=*%$*=;:::::::: ",
" :;-==--;-;;----===&%=-:::::::: ",
" :===--;-==-------=*%$=;::::::: ",
" ==-=-&-=*$&=-----===O*-::::::: ",
".-==----=$o#*=&-----=&$=;:::::: ",
" ;----;;-=#o@*------=**%;:::::: ",
" ::;;;;:--*oO$--&-;-==O*-:::::: ",
" :::::::;;=$o$-;;----==*=;::::: ",
" :::::::::;*$*-;;-----&**;::::: ",
" :::::::::;;-;;;;;;;--=**-::::: ",
" ::::::::::;;;::;::;;-=*$-::::: ",
" :::::::::::;:::::::;;-&*=;:::: ",
" ::::::::::::::::::::;-*%=;:::: ",
" :::::::::::::::::::;;-=*-;:::: ",
" :::::::::::::::::::::;-*=;:::: ",
" ::::::::::::::::::::::;=-::::: ",
" ::::::::::::::::::::::;-;::::: ",
" ::::::::::::::::::::::;;;::::: ",
" :::::::::::::::::::::::;--;;:: ",
" ::::::::::::::::::::::;-$*-;:: ",
" ::::::::::::::::::::::;*+O$-:; ",
" :::::::::::::::::::::;-OO#$=;; ",
" :::::::::::::::::::::;=$*=--;; ",
" :::::::::::::::::::::;-=-;:::: ",
" :::::::::::::::::::::;-=-;:::: ",
"                        ..      "
};
